<svg width="112" height="32" viewBox="0 0 112 32" fill="none" xmlns="http://www.w3.org/2000/svg">
<path d="M51.4913 4.97698C51.8795 4.91911 52.4455 4.96 52.8597 4.93776C56.9861 4.71692 64.3011 7.24083 65.0569 11.9921C65.3201 13.5895 64.9376 15.2269 63.9956 16.5345C62.6538 18.3667 60.9403 19.0432 59.0414 19.9788C58.7162 20.139 57.9697 21.3446 57.5596 21.7081C55.5236 23.5122 52.8754 24.3083 50.2517 24.6964C47.863 25.0039 45.4366 24.7531 43.1581 23.963C41.0446 23.2129 37.9757 21.5964 37.1183 19.4564C35.0571 14.312 38.3417 11.4945 42.3533 9.60822C44.179 6.48111 48.0984 5.21097 51.4913 4.97698ZM42.3788 9.68976C41.5538 11.0704 41.0443 12.5034 41.4413 14.1341C41.9648 16.2056 43.2744 17.9832 45.0845 19.0792C47.1764 20.3446 50.2368 21.1397 52.6682 21.1188C54.5263 21.1079 57.1664 20.8045 58.8545 19.9605C59.7082 18.6147 60.1179 17.2307 59.782 15.641C59.4244 13.9483 58.0049 11.8326 56.5323 10.9295C53.9622 9.35343 51.5297 8.70586 48.5714 8.57434C46.2197 8.64452 44.63 8.82949 42.3788 9.68976Z" fill="#D23166"/>
<path d="M106.862 5.48755C107.725 5.35005 110.912 5.44666 112 5.43494C109.948 9.30575 107.637 13.1371 105.461 16.9454C104.441 18.7305 103.751 20.4676 102.814 22.218C100.642 26.2695 97.41 29.931 92.9477 31.2958C90.418 32.0888 87.7307 32.2143 85.1398 31.6609C85.5704 30.1077 86.0238 28.3567 86.5137 26.8266C89.5512 28.474 91.9607 29.3353 95.5493 28.3854C97.3786 27.9011 99.6522 25.8768 100.676 24.2435C98.818 24.258 96.9602 24.2525 95.1024 24.2273L88.25 11.0265C87.3953 9.3751 86.0112 7.10635 85.2925 5.49293L93.3324 5.50118C94.1027 6.98487 94.8924 8.50047 95.7013 9.96467C96.4211 11.2678 96.9268 12.641 97.5629 13.9839C99.0583 16.6924 100.436 19.5618 101.958 22.2427C103.967 18.7246 105.536 14.9253 107.716 11.483C109.082 9.32811 110.533 6.38094 106.725 5.95445L106.862 5.48755Z" fill="#D23166"/>
<path d="M106.725 5.95445L106.862 5.48755C107.136 5.51421 107.225 5.47036 107.386 5.63333C107.338 5.91849 106.946 5.92564 106.725 5.95445Z" fill="black"/>
<path d="M69.7025 5.44932C69.7177 4.60698 69.842 3.55206 69.2513 2.87879C68.9125 2.49259 68.5571 2.66046 68.3676 2.346C68.4068 2.17467 68.4032 2.11955 68.5332 2.00237C69.3519 1.82398 70.8337 1.71458 71.7223 1.61164L76.6574 1.00831C76.6809 2.50204 76.6823 3.99612 76.6618 5.48985L81.6199 5.4883C82.0918 5.4877 83.7294 5.37865 83.9836 5.61563C84.0176 5.83958 84.0381 5.87808 83.9692 6.08445C82.0445 6.25363 78.7101 6.08505 76.6552 6.12474L76.693 15.9096C76.6923 16.8474 76.7321 17.9566 76.6916 18.8657C76.4064 25.2869 80.4204 24.1217 83.8111 20.7751L83.807 23.3296C81.0059 24.6564 78.5669 25.0201 75.4971 24.6621C72.6798 24.3335 70.225 23.29 69.9067 20.0755C69.7687 18.6799 69.8381 17.1763 69.8371 15.7704C69.8327 13.7195 69.8106 11.6687 69.7707 9.6182C69.7618 8.95378 69.8434 7.60795 69.7107 7.05197C69.3209 5.42026 66.0719 6.3897 64.893 6.07058C64.8865 5.82727 64.888 5.77729 64.9411 5.54067C65.1776 5.41524 67.8608 5.47825 68.3096 5.48184C68.7966 5.45757 69.2116 5.44262 69.7025 5.44932Z" fill="#D23166"/>
<path d="M64.893 6.07058C64.8865 5.82727 64.888 5.77729 64.9411 5.54067C65.1776 5.41524 67.8608 5.47825 68.3096 5.48184L68.7906 5.5547C68.594 5.856 68.6429 5.95333 68.3084 6.00044C67.3104 6.14093 65.8451 5.92794 64.893 6.07058Z" fill="black"/>
<path d="M29.3807 0C31.036 0.0371848 32.6483 0.455543 33.1174 2.25105C32.8994 3.17171 32.422 3.60071 31.615 4.01608C30.327 4.69269 29.291 3.79476 28.1122 3.322C26.655 2.73745 24.9655 3.41275 24.1676 4.7667C23.1942 6.41862 22.5963 8.33357 21.7996 10.1004C20.0122 14.0642 17.8496 17.7737 16.454 21.9102C16.7178 22.6476 17.3449 23.9537 17.6792 24.715L11.5798 24.7226C11.4353 24.4444 11.2993 24.1385 11.1705 23.8515C9.21083 19.4881 6.49093 15.5263 4.65358 11.1064C4.2771 10.2006 3.69959 9.16994 3.23633 8.29376C2.59904 7.00533 1.9397 5.72825 1.25878 4.46301C0.882774 3.75255 0.262816 2.63007 0 1.9091C1.82285 1.89176 3.79993 1.82146 5.60875 1.86127C6.19192 2.69046 6.74125 4.004 7.26912 4.92178C9.64732 9.05611 11.5159 13.4137 13.9485 17.5162C14.6467 18.6937 15.4095 20.0117 16.0233 21.2231C16.6922 19.7303 17.1537 18.1154 17.8876 16.5808C19.126 13.9194 20.5298 11.3053 21.7214 8.62197C23.4386 4.75475 24.2707 0.270098 29.3807 0Z" fill="#D23166"/>
<path d="M32.6354 5.11761L32.6754 5.1169C32.9061 5.35388 33.2555 19.7242 33.3025 21.3036C33.3253 22.0689 33.2489 22.8112 33.9222 23.4778C34.1828 23.7357 34.7455 23.9734 34.6797 24.3217C33.8938 24.4269 32.3107 24.3844 31.4621 24.3834C29.7537 24.3796 28.0454 24.3866 26.3371 24.4046C26.1719 24.3447 26.1844 24.2763 26.1677 24.1365C26.5281 23.5028 27.4051 23.9405 27.3306 22.4411C27.0856 17.5155 27.0251 12.522 26.6496 7.61402C26.6051 7.03365 25.7071 6.85585 25.4151 6.56292C25.3799 6.32929 25.3724 6.42267 25.4935 6.1894C26.0953 6.01065 27.9507 5.81863 28.6749 5.7048C29.9235 5.50859 31.4075 5.21327 32.6354 5.11761Z" fill="#D23166"/>
</svg>
